<svg width="52" height="54" viewBox="0 0 115 32" fill="none" xmlns="http://www.w3.org/2000/svg">
<g clip-path="url(#clip0_109_20)">
<path d="M0 7.74422H6.81958L10.7782 17.8867L14.795 7.74422H21.4411L11.4428 31.7858H4.76778L7.51306 25.4286L0 7.74422ZM28.3471 7.33964C23.2324 7.33964 19.9962 11.9342 19.9962 16.4997C19.9962 21.6432 23.5504 25.7177 28.2605 25.7177C31.7858 25.7177 33.1151 23.5793 33.1151 23.5793V25.2554H39.0675V7.74422H33.1151V9.33348C33.086 9.33348 31.6124 7.33964 28.3471 7.33964V7.33964ZM29.6186 12.9743C31.9881 12.9743 33.2017 14.8527 33.2017 16.5286C33.2017 18.349 31.9015 20.1408 29.6186 20.1408C27.7404 20.1408 26.0355 18.6092 26.0355 16.6154C26.0355 14.5924 27.3938 12.9745 29.6186 12.9745V12.9743ZM41.0905 25.2552V0H47.3032V9.39122C47.3032 9.39122 48.7767 7.33964 51.8686 7.33964C55.654 7.33964 57.8793 10.1715 57.8793 14.1881V25.2554H51.6952V15.6907C51.6952 14.3324 51.0597 13.0032 49.5859 13.0032C48.0832 13.0032 47.3032 14.3324 47.3032 15.6907V25.2554H41.0905V25.2552ZM68.484 7.33986C62.618 7.33986 59.1217 11.7899 59.1217 16.5867C59.1217 22.0191 63.3405 25.7468 68.5129 25.7468C73.5121 25.7468 77.8752 22.1926 77.8752 16.6733C77.8752 10.6341 73.2807 7.33986 68.484 7.33986ZM68.5418 13.0036C70.6222 13.0036 72.0383 14.7372 72.0383 16.5577C72.0383 18.118 70.709 20.0542 68.5418 20.0542C66.5479 20.0542 65.0743 18.4649 65.0743 16.5288C65.0743 14.7084 66.2879 13.0034 68.5418 13.0034V13.0036ZM88.2202 7.33986C82.3541 7.33986 78.8576 11.7899 78.8576 16.5867C78.8576 22.0191 83.0765 25.7468 88.2491 25.7468C93.2482 25.7468 97.6114 22.1926 97.6114 16.6733C97.6114 10.6341 93.0457 7.33986 88.2202 7.33986V7.33986ZM88.2779 13.0036C90.3584 13.0036 91.7744 14.7372 91.7744 16.5577C91.7744 18.118 90.4452 20.0542 88.2779 20.0542C86.2841 20.0542 84.8103 18.4649 84.8103 16.5288C84.8103 14.7084 86.0529 13.0034 88.2779 13.0034V13.0036ZM102.524 17.3668C104.806 17.3668 106.656 19.2161 106.656 21.4991C106.656 23.7816 104.806 25.6311 102.524 25.6311C100.241 25.6311 98.3915 23.7818 98.3915 21.4991C98.3915 19.2161 100.241 17.3668 102.524 17.3668H102.524ZM108.014 15.8642H100.587L107.176 0H114.573L108.014 15.8639V15.8642Z" fill="#5F01D1"/>
</g>
<defs>
<clipPath id="clip0_109_20">
<rect width="114.573" height="32" fill="white"/>
</clipPath>
</defs>
</svg>
