<svg width="114" height="27" viewBox="0 0 114 27" fill="none" xmlns="http://www.w3.org/2000/svg">
<path d="M14.125 15L18.3281 0.796875H25.3438V1.71875C25.0938 1.84375 24.8438 1.94271 24.5938 2.01562C24.3438 2.07812 24.1198 2.15625 23.9219 2.25C23.4844 2.47917 23.2656 2.86979 23.2656 3.42188V20.125C23.2656 20.7708 23.4896 21.2188 23.9375 21.4688C24.1354 21.5833 24.3646 21.6823 24.625 21.7656C24.8854 21.849 25.1615 21.9531 25.4531 22.0781V23H17.2812V22.0781C17.5312 21.9531 17.776 21.849 18.0156 21.7656C18.2656 21.6823 18.4896 21.5833 18.6875 21.4688C19.1354 21.2083 19.3594 20.7604 19.3594 20.125V3.03125H19.2969L14.9531 17.7344L14.125 15ZM5.28125 4.54688V19.6719C5.28125 20.4844 5.52083 21.0573 6 21.3906C6.21875 21.5365 6.46354 21.6562 6.73438 21.75C7.01562 21.8333 7.29688 21.9427 7.57812 22.0781V23H1.3125V22.0781C1.5625 21.9531 1.81771 21.8542 2.07812 21.7812C2.33854 21.6979 2.57292 21.5833 2.78125 21.4375C3.26042 21.1146 3.5 20.5365 3.5 19.7031V3.875L5.28125 4.54688ZM5.34375 3.35938C3.14583 2.51562 1.80208 1.96875 1.3125 1.71875V0.796875H8.35938L14.3438 19.7812L13.3906 23H11.5469L5.34375 3.35938Z" fill="#333333"/>
<path d="M27.5039 13.75L29.7368 6.20459H33.4639V6.69434C33.3311 6.76074 33.1982 6.81331 33.0654 6.85205C32.9326 6.88525 32.8136 6.92676 32.7085 6.97656C32.4761 7.09831 32.3599 7.30583 32.3599 7.59912V16.4727C32.3599 16.8158 32.4788 17.0537 32.7168 17.1865C32.8219 17.2474 32.9437 17.3 33.082 17.3442C33.2204 17.3885 33.367 17.4438 33.522 17.5103V18H29.1807V17.5103C29.3135 17.4438 29.4435 17.3885 29.5708 17.3442C29.7036 17.3 29.8226 17.2474 29.9277 17.1865C30.1657 17.0482 30.2847 16.8102 30.2847 16.4727V7.3916H30.2515L27.9438 15.2026L27.5039 13.75ZM22.8057 8.19678V16.2319C22.8057 16.6636 22.9329 16.9679 23.1875 17.145C23.3037 17.2225 23.4338 17.2861 23.5776 17.3359C23.7271 17.3802 23.8765 17.4383 24.0259 17.5103V18H20.6973V17.5103C20.8301 17.4438 20.9657 17.3913 21.104 17.3525C21.2424 17.3083 21.3669 17.2474 21.4775 17.1699C21.7321 16.9984 21.8594 16.6912 21.8594 16.2485V7.83984L22.8057 8.19678ZM22.8389 7.56592C21.6712 7.11768 20.9574 6.82715 20.6973 6.69434V6.20459H24.4409L27.6201 16.29L27.1138 18H26.1343L22.8389 7.56592Z" fill="#828282"/>
<path d="M41.068 17V8.54H41.896L45.148 14.648L48.376 8.54H49.204V17H48.292V10.388L45.472 15.692H44.824L41.968 10.4V17H41.068ZM53.6016 17.108C53.0336 17.108 52.5416 16.984 52.1256 16.736C51.7096 16.488 51.3856 16.14 51.1536 15.692C50.9296 15.236 50.8176 14.7 50.8176 14.084C50.8176 13.468 50.9296 12.936 51.1536 12.488C51.3856 12.032 51.7096 11.68 52.1256 11.432C52.5416 11.184 53.0336 11.06 53.6016 11.06C54.1616 11.06 54.6496 11.184 55.0656 11.432C55.4896 11.68 55.8136 12.032 56.0376 12.488C56.2696 12.936 56.3856 13.468 56.3856 14.084C56.3856 14.7 56.2696 15.236 56.0376 15.692C55.8136 16.14 55.4896 16.488 55.0656 16.736C54.6496 16.984 54.1616 17.108 53.6016 17.108ZM53.6016 16.328C54.1456 16.328 54.5816 16.136 54.9096 15.752C55.2376 15.36 55.4016 14.804 55.4016 14.084C55.4016 13.356 55.2376 12.8 54.9096 12.416C54.5816 12.032 54.1456 11.84 53.6016 11.84C53.0496 11.84 52.6096 12.032 52.2816 12.416C51.9616 12.8 51.8016 13.356 51.8016 14.084C51.8016 14.804 51.9616 15.36 52.2816 15.752C52.6096 16.136 53.0496 16.328 53.6016 16.328ZM58.4356 19.16L59.4316 16.904L56.9716 11.168H58.0276L59.9596 15.896L61.9036 11.168H62.9236L59.4556 19.16H58.4356ZM66.2696 17.108C65.7016 17.108 65.2096 16.984 64.7936 16.736C64.3776 16.488 64.0536 16.14 63.8216 15.692C63.5976 15.236 63.4856 14.7 63.4856 14.084C63.4856 13.468 63.5976 12.936 63.8216 12.488C64.0536 12.032 64.3776 11.68 64.7936 11.432C65.2096 11.184 65.7016 11.06 66.2696 11.06C66.8296 11.06 67.3176 11.184 67.7336 11.432C68.1576 11.68 68.4816 12.032 68.7056 12.488C68.9376 12.936 69.0536 13.468 69.0536 14.084C69.0536 14.7 68.9376 15.236 68.7056 15.692C68.4816 16.14 68.1576 16.488 67.7336 16.736C67.3176 16.984 66.8296 17.108 66.2696 17.108ZM66.2696 16.328C66.8136 16.328 67.2496 16.136 67.5776 15.752C67.9056 15.36 68.0696 14.804 68.0696 14.084C68.0696 13.356 67.9056 12.8 67.5776 12.416C67.2496 12.032 66.8136 11.84 66.2696 11.84C65.7176 11.84 65.2776 12.032 64.9496 12.416C64.6296 12.8 64.4696 13.356 64.4696 14.084C64.4696 14.804 64.6296 15.36 64.9496 15.752C65.2776 16.136 65.7176 16.328 66.2696 16.328ZM73.7516 17V8.54H74.5796L77.8316 14.648L81.0596 8.54H81.8876V17H80.9756V10.388L78.1556 15.692H77.5076L74.6516 10.4V17H73.7516ZM85.6972 17.108C85.2972 17.108 84.9372 17.032 84.6172 16.88C84.3052 16.72 84.0572 16.504 83.8732 16.232C83.6892 15.96 83.5972 15.656 83.5972 15.32C83.5972 14.896 83.7052 14.56 83.9212 14.312C84.1452 14.064 84.5092 13.888 85.0132 13.784C85.5252 13.672 86.2212 13.616 87.1012 13.616H87.4852V13.244C87.4852 12.748 87.3812 12.392 87.1732 12.176C86.9732 11.952 86.6492 11.84 86.2012 11.84C85.8492 11.84 85.5092 11.892 85.1812 11.996C84.8532 12.092 84.5172 12.252 84.1732 12.476L83.8372 11.768C84.1412 11.552 84.5092 11.38 84.9412 11.252C85.3812 11.124 85.8012 11.06 86.2012 11.06C86.9532 11.06 87.5092 11.244 87.8692 11.612C88.2372 11.98 88.4212 12.552 88.4212 13.328V17H87.5092V15.992C87.3572 16.336 87.1212 16.608 86.8012 16.808C86.4892 17.008 86.1212 17.108 85.6972 17.108ZM85.8532 16.376C86.3332 16.376 86.7252 16.212 87.0292 15.884C87.3332 15.548 87.4852 15.124 87.4852 14.612V14.252H87.1132C86.4652 14.252 85.9532 14.284 85.5772 14.348C85.2092 14.404 84.9492 14.508 84.7972 14.66C84.6532 14.804 84.5812 15.004 84.5812 15.26C84.5812 15.588 84.6932 15.856 84.9172 16.064C85.1492 16.272 85.4612 16.376 85.8532 16.376ZM90.2245 17V11.168H91.1725V12.212C91.4845 11.508 92.1245 11.12 93.0925 11.048L93.4405 11.012L93.5125 11.852L92.9005 11.924C92.3485 11.972 91.9285 12.148 91.6405 12.452C91.3525 12.748 91.2085 13.156 91.2085 13.676V17H90.2245ZM97.1817 17.108C96.4937 17.108 95.9777 16.928 95.6337 16.568C95.2897 16.2 95.1177 15.672 95.1177 14.984V11.924H93.9777V11.168H95.1177V9.38H96.0897V11.168H97.9377V11.924H96.0897V14.888C96.0897 15.344 96.1857 15.692 96.3777 15.932C96.5697 16.164 96.8817 16.28 97.3137 16.28C97.4417 16.28 97.5697 16.264 97.6977 16.232C97.8257 16.2 97.9417 16.168 98.0457 16.136L98.2137 16.88C98.1097 16.936 97.9577 16.988 97.7577 17.036C97.5577 17.084 97.3657 17.108 97.1817 17.108ZM98.917 9.716V8.624H100.117V9.716H98.917ZM99.037 17V11.168H100.009V17H99.037ZM101.826 17V11.168H102.774V12.164C102.966 11.796 103.238 11.52 103.59 11.336C103.942 11.152 104.338 11.06 104.778 11.06C106.162 11.06 106.854 11.828 106.854 13.364V17H105.882V13.424C105.882 12.88 105.774 12.484 105.558 12.236C105.35 11.98 105.014 11.852 104.55 11.852C104.014 11.852 103.586 12.02 103.266 12.356C102.954 12.684 102.798 13.124 102.798 13.676V17H101.826ZM110.614 17.108C110.158 17.108 109.726 17.044 109.318 16.916C108.91 16.788 108.574 16.608 108.31 16.376L108.622 15.692C108.91 15.924 109.226 16.096 109.57 16.208C109.922 16.312 110.278 16.364 110.638 16.364C111.094 16.364 111.438 16.28 111.67 16.112C111.902 15.944 112.018 15.716 112.018 15.428C112.018 15.204 111.942 15.028 111.79 14.9C111.638 14.764 111.398 14.66 111.07 14.588L109.978 14.348C108.986 14.132 108.49 13.62 108.49 12.812C108.49 12.284 108.698 11.86 109.114 11.54C109.538 11.22 110.09 11.06 110.77 11.06C111.17 11.06 111.55 11.124 111.91 11.252C112.278 11.372 112.582 11.552 112.822 11.792L112.498 12.476C112.266 12.26 111.994 12.096 111.682 11.984C111.378 11.864 111.074 11.804 110.77 11.804C110.322 11.804 109.982 11.892 109.75 12.068C109.518 12.244 109.402 12.476 109.402 12.764C109.402 13.212 109.698 13.5 110.29 13.628L111.382 13.856C111.894 13.968 112.282 14.148 112.546 14.396C112.81 14.636 112.942 14.964 112.942 15.38C112.942 15.916 112.73 16.34 112.306 16.652C111.882 16.956 111.318 17.108 110.614 17.108Z" fill="#4F4F4F"/>
</svg>
